<?xml version="1.0" encoding="UTF-8" standalone="no"?>
<svg
   xmlns:dc="http://purl.org/dc/elements/1.1/"
   xmlns:cc="http://creativecommons.org/ns#"
   xmlns:rdf="http://www.w3.org/1999/02/22-rdf-syntax-ns#"
   xmlns:svg="http://www.w3.org/2000/svg"
   xmlns="http://www.w3.org/2000/svg"
   xmlns:xlink="http://www.w3.org/1999/xlink"
   xmlns:sodipodi="http://sodipodi.sourceforge.net/DTD/sodipodi-0.dtd"
   xmlns:inkscape="http://www.inkscape.org/namespaces/inkscape"
   width="10mm"
   height="10mm"
   viewBox="0 0 9.9999997 9.9999997"
   version="1.1"
   id="svg8"
   inkscape:version="1.0beta2 (2b71d25, 2019-12-03)"
   sodipodi:docname="confdaora.svg"
   inkscape:export-filename="/home/diogo/Desenvolvimento/confdaora/devtools/python/templates/docs/favicon.png"
   inkscape:export-xdpi="256"
   inkscape:export-ydpi="256">
  <defs
     id="defs2">
    <linearGradient
       inkscape:collect="always"
       id="linearGradient1426">
      <stop
         style="stop-color:#3771a2;stop-opacity:1;"
         offset="0"
         id="stop1422" />
      <stop
         style="stop-color:#3771a2;stop-opacity:0;"
         offset="1"
         id="stop1424" />
    </linearGradient>
    <linearGradient
       inkscape:collect="always"
       xlink:href="#linearGradient1426"
       id="linearGradient1428"
       x1="57.534058"
       y1="50.242435"
       x2="51.47369"
       y2="38.180538"
       gradientUnits="userSpaceOnUse"
       gradientTransform="matrix(0.44051168,0,0,0.44051168,-18.237135,271.54117)" />
    <linearGradient
       inkscape:collect="always"
       id="linearGradient11301">
      <stop
         style="stop-color:#ffe052;stop-opacity:1"
         offset="0"
         id="stop11303" />
      <stop
         style="stop-color:#ffc331;stop-opacity:1"
         offset="1"
         id="stop11305" />
    </linearGradient>
    <linearGradient
       inkscape:collect="always"
       xlink:href="#linearGradient11301"
       id="linearGradient11307"
       x1="89.136749"
       y1="111.92053"
       x2="147.77737"
       y2="168.1012"
       gradientUnits="userSpaceOnUse"
       gradientTransform="matrix(0.09053166,0,0,0.09053166,38.980602,48.707866)" />
    <linearGradient
       inkscape:collect="always"
       id="linearGradient9515">
      <stop
         style="stop-color:#387eb8;stop-opacity:1"
         offset="0"
         id="stop9517" />
      <stop
         style="stop-color:#366994;stop-opacity:1"
         offset="1"
         id="stop9519" />
    </linearGradient>
    <linearGradient
       inkscape:collect="always"
       xlink:href="#linearGradient9515"
       id="linearGradient9521"
       x1="55.549179"
       y1="77.070274"
       x2="110.14919"
       y2="131.85291"
       gradientUnits="userSpaceOnUse"
       gradientTransform="matrix(0.09053166,0,0,0.09053166,39.193281,49.033568)" />
  </defs>
  <sodipodi:namedview
     id="base"
     pagecolor="#ffffff"
     bordercolor="#666666"
     borderopacity="1.0"
     inkscape:pageopacity="0.0"
     inkscape:pageshadow="2"
     inkscape:zoom="11.328645"
     inkscape:cx="11.260224"
     inkscape:cy="17.488859"
     inkscape:document-units="mm"
     inkscape:current-layer="layer1"
     showgrid="false"
     inkscape:window-width="1440"
     inkscape:window-height="855"
     inkscape:window-x="0"
     inkscape:window-y="23"
     inkscape:window-maximized="0"
     inkscape:document-rotation="0"
     showguides="false" />
  <metadata
     id="metadata5">
    <rdf:RDF>
      <cc:Work
         rdf:about="">
        <dc:format>image/svg+xml</dc:format>
        <dc:type
           rdf:resource="http://purl.org/dc/dcmitype/StillImage" />
        <dc:title></dc:title>
      </cc:Work>
    </rdf:RDF>
  </metadata>
  <g
     inkscape:label="Layer 1"
     inkscape:groupmode="layer"
     id="layer1"
     transform="translate(0,-290.65)">
    <g
       transform="translate(-0.17403029,0.03058308)"
       id="g1712">
      <path
         style="fill:url(#linearGradient1428);fill-opacity:1;stroke:none;stroke-width:0.00863851"
         d="m 9.2247217,290.75943 c -0.2185972,0.0313 -0.3511891,0.16609 -0.5010325,0.31594 l -0.3887314,0.38872 c -0.1125777,0.11256 -0.2584723,0.22376 -0.3497376,0.35419 -0.049973,0.0713 -0.018228,0.16572 -0.079432,0.24154 -0.1112297,0.13779 -0.3629113,0.0631 -0.421567,0.26812 -0.023725,0.0828 0.1008901,0.16584 0.1510173,0.21597 l 0.4751167,0.47512 c 0.047876,0.0478 0.1210163,0.15589 0.1986855,0.14472 0.2086983,-0.0301 0.1523406,-0.32025 0.2851998,-0.42522 0.075752,-0.0599 0.1682952,-0.0312 0.2417479,-0.0798 0.131133,-0.0867 0.2430008,-0.23691 0.354178,-0.34809 l 0.3800939,-0.38006 c 0.1133191,-0.11327 0.2258538,-0.21776 0.2830916,-0.37147 0.1502331,-0.40347 -0.1921454,-0.8622 -0.6286308,-0.79968 m -0.060468,0.31972 c 0.08945,-0.0235 0.1501104,0.078 0.1045864,0.15169 -0.052021,0.0842 -0.147149,0.15487 -0.2168868,0.22462 l -0.440562,0.44056 c -0.059918,0.0599 -0.1519698,0.1961 -0.2418778,0.20511 -0.092294,0.008 -0.13292,-0.0951 -0.082766,-0.16193 0.1726047,-0.22984 0.4235873,-0.4272 0.6269891,-0.63061 0.064618,-0.0645 0.1601757,-0.20584 0.2505171,-0.22944 m 0.2764304,0.2865 c 0.088199,-0.0325 0.1656262,0.0614 0.1201706,0.14164 -0.047944,0.0846 -0.1467599,0.15617 -0.2151934,0.22459 l -0.4405632,0.44056 c -0.062388,0.0623 -0.1519933,0.1942 -0.2418774,0.21333 -0.088345,0.0188 -0.1494026,-0.0811 -0.099222,-0.15284 0.05361,-0.0766 0.136842,-0.14129 0.2028844,-0.20733 l 0.414647,-0.41465 c 0.070171,-0.0702 0.1653154,-0.21074 0.2591538,-0.2453 m -1.4685417,2.18896 c -0.1275819,0.0899 -0.2351738,0.22654 -0.3455396,0.3369 -0.041535,0.0415 -0.1122486,0.0906 -0.1330072,0.14685 -0.035148,0.0953 -0.0052,0.25256 -0.0052,0.35418 v 0.82066 H 5.4324335 v -2.05597 h 0.8292936 c 0.1039903,0 0.2652708,0.0308 0.3628173,-0.006 0.056288,-0.0208 0.1053209,-0.0915 0.1468533,-0.13301 0.1103654,-0.11033 0.2470268,-0.21796 0.3369008,-0.34553 H 5.7002266 c -0.1769591,0 -0.4401727,-0.049 -0.5960559,0.0493 -0.2109142,0.13293 -0.155493,0.41984 -0.155493,0.63311 v 1.62401 c 0,0.19018 -0.054966,0.47427 0.095831,0.62047 0.1549271,0.15023 0.4327665,0.0966 0.6298026,0.0966 h 1.6067581 c 0.2148907,0 0.5077446,0.0571 0.6417434,-0.15549 0.097192,-0.15422 0.049335,-0.41245 0.049335,-0.58743 v -1.39942 m -0.406009,-0.7006 c -0.098998,0.0387 -0.1934855,0.1774 -0.2677928,0.25172 l -0.4492016,0.44921 c -0.072062,0.072 -0.1420941,0.1609 -0.2245997,0.22085 -0.1091472,0.0792 -0.3128941,-0.0558 -0.3904934,0.0815 -0.082057,0.14518 -0.1503889,0.29999 -0.2249736,0.44917 -0.03681,0.0736 -0.1002923,0.16064 -0.1152963,0.24187 -0.013992,0.0757 0.1280821,0.21781 0.2038156,0.20383 0.072667,-0.0135 0.1502489,-0.0651 0.2159617,-0.0981 0.1175701,-0.0588 0.2366346,-0.11396 0.3541782,-0.17278 0.051597,-0.0257 0.1513289,-0.0534 0.1798613,-0.10635 0.046331,-0.0858 -0.010413,-0.21745 0.012934,-0.3105 0.00981,-0.0391 0.047735,-0.0677 0.074999,-0.095 l 0.5960553,-0.59591 c 0.08059,-0.0805 0.2155306,-0.17395 0.2662392,-0.27645 0.040593,-0.082 -0.1496547,-0.27512 -0.2316849,-0.24307 z"
         id="path586"
         inkscape:connector-curvature="0" />
      <g
         transform="matrix(0.5827902,0,0,0.6525479,-24.863255,258.34874)"
         id="g4679">
        <path
           style="color:#000000;display:inline;overflow:visible;visibility:visible;opacity:1;fill:url(#linearGradient11307);fill-opacity:1;fill-rule:nonzero;stroke:none;stroke-width:0.377893;stroke-linecap:butt;stroke-linejoin:miter;stroke-miterlimit:4;stroke-dasharray:none;stroke-dashoffset:0;stroke-opacity:1;marker:none;marker-start:none;marker-mid:none;marker-end:none"
           d="m 50.971923,57.519885 v 0.993331 c 0,0 0.01532,0.393982 -0.175754,0.795447 -0.191069,0.401465 -0.626476,0.816277 -1.40863,0.816277 h -2.404566 c 0,0 -0.299283,-0.0019 -0.591052,0.136696 -0.291768,0.138632 -0.566316,0.380087 -0.566316,0.979012 v 2.20668 l -0.0026,0.01562 c 0,0 -0.04671,0.236024 0.186169,0.511638 0.232881,0.275611 0.779362,0.597561 2.073889,0.597561 1.241567,0 1.781007,-0.271545 2.007493,-0.496016 0.113238,-0.112234 0.156782,-0.215506 0.174452,-0.289016 0.01762,-0.07351 0.01172,-0.09894 0.01172,-0.09894 l -0.0026,-0.01432 -0.0039,-0.964691 h -2.42149 v -0.721239 h 3.584066 l 0.0091,0.0026 c 0,0 0.33666,0.03798 0.686089,-0.197885 0.349429,-0.235866 0.727749,-0.751501 0.727749,-1.991871 0,-1.245446 -0.337316,-1.795996 -0.640524,-2.050455 -0.303206,-0.254459 -0.575429,-0.230432 -0.575429,-0.230432 h -0.0065 z m -1.553139,5.414504 c 0.342753,0 0.624901,0.282148 0.624901,0.624901 0,0.342753 -0.282148,0.622296 -0.624901,0.622296 -0.342753,0 -0.624901,-0.279543 -0.624901,-0.622296 0,-0.342753 0.282148,-0.624901 0.624901,-0.624901 z"
           id="path4670"
           inkscape:connector-curvature="0" />
        <path
           style="color:#000000;display:inline;overflow:visible;visibility:visible;opacity:1;fill:url(#linearGradient9521);fill-opacity:1;fill-rule:nonzero;stroke:none;stroke-width:0.377893;stroke-linecap:butt;stroke-linejoin:miter;stroke-miterlimit:4;stroke-dasharray:none;stroke-dashoffset:0;stroke-opacity:1;marker:none;marker-start:none;marker-mid:none;marker-end:none"
           d="m 48.223661,55.330128 c -1.241566,0 -1.78231,0.271545 -2.008795,0.496015 -0.113245,0.112235 -0.154178,0.214205 -0.171848,0.287715 -0.01762,0.0735 -0.01172,0.101547 -0.01172,0.101547 l 0.0026,0.01302 0.0026,0.964691 h 2.42149 v 0.721239 h -3.584066 l -0.01042,-0.0026 c 0,-10e-7 -0.335358,-0.03798 -0.684787,0.197886 -0.34943,0.235866 -0.729051,0.751502 -0.729051,1.991871 0,1.245448 0.33992,1.794694 0.643127,2.049154 0.303207,0.254461 0.574128,0.231734 0.574128,0.231734 l 0.0052,-0.0013 h 0.663957 v -0.992031 c 0,0 -0.01662,-0.395283 0.174452,-0.796748 0.191069,-0.401465 0.626476,-0.816276 1.40863,-0.816276 h 2.403264 0.0026 c 0,0 0.29798,0.0019 0.589749,-0.136698 0.29177,-0.138632 0.566317,-0.380091 0.566317,-0.979011 v -2.206681 l 0.0039,-0.01432 c 0,0 0.04541,-0.236025 -0.187471,-0.511637 -0.232883,-0.275613 -0.779362,-0.597562 -2.073889,-0.597562 z m -1.334423,0.389261 c 0.342753,0 0.623599,0.282148 0.623599,0.624901 0,0.342753 -0.280846,0.624901 -0.623599,0.624901 -0.342752,0 -0.624901,-0.282148 -0.624901,-0.624901 0,-0.342753 0.282149,-0.624901 0.624901,-0.624901 z"
           id="path4665"
           inkscape:connector-curvature="0" />
      </g>
    </g>
  </g>
  <style
     id="style221"
     type="text/css">
	.st0{fill:#333333;}
</style>
  <style
     id="style221-3"
     type="text/css">
	.st0{fill:#333333;}
</style>
</svg>
