<?xml version="1.0" encoding="UTF-8" standalone="no"?>
<svg
   xmlns:dc="http://purl.org/dc/elements/1.1/"
   xmlns:cc="http://creativecommons.org/ns#"
   xmlns:rdf="http://www.w3.org/1999/02/22-rdf-syntax-ns#"
   xmlns:svg="http://www.w3.org/2000/svg"
   xmlns="http://www.w3.org/2000/svg"
   xmlns:sodipodi="http://sodipodi.sourceforge.net/DTD/sodipodi-0.dtd"
   xmlns:inkscape="http://www.inkscape.org/namespaces/inkscape"
   inkscape:export-ydpi="256"
   inkscape:export-xdpi="256"
   inkscape:export-filename="/home/diogo/Desenvolvimento/confdaora/devtools/python/templates/docs/favicon.png"
   sodipodi:docname="confdaora-white.svg"
   inkscape:version="1.0beta2 (2b71d25, 2019-12-03)"
   id="svg8"
   version="1.1"
   viewBox="0 0 6.3499997 6.3499997"
   height="6.3499999mm"
   width="6.3499999mm">
  <defs
     id="defs2" />
  <sodipodi:namedview
     showguides="false"
     inkscape:document-rotation="0"
     inkscape:window-maximized="1"
     inkscape:window-y="23"
     inkscape:window-x="0"
     inkscape:window-height="855"
     inkscape:window-width="1440"
     showgrid="false"
     inkscape:current-layer="layer1"
     inkscape:document-units="mm"
     inkscape:cy="17.488859"
     inkscape:cx="12.804981"
     inkscape:zoom="11.328645"
     inkscape:pageshadow="2"
     inkscape:pageopacity="0.0"
     borderopacity="1.0"
     bordercolor="#666666"
     pagecolor="#ffffff"
     id="base" />
  <metadata
     id="metadata5">
    <rdf:RDF>
      <cc:Work
         rdf:about="">
        <dc:format>image/svg+xml</dc:format>
        <dc:type
           rdf:resource="http://purl.org/dc/dcmitype/StillImage" />
        <dc:title></dc:title>
      </cc:Work>
    </rdf:RDF>
  </metadata>
  <g
     transform="translate(0,-290.65)"
     id="layer1"
     inkscape:groupmode="layer"
     inkscape:label="Layer 1">
    <path
       style="fill:#ffffff;fill-opacity:1;stroke:none;stroke-width:0.0104729"
       d="m 5.3701184,290.83011 c -0.2650165,0.0379 -0.4257642,0.20136 -0.6074271,0.38303 l -0.4712786,0.47127 c -0.136483,0.13649 -0.3133592,0.27127 -0.4240046,0.42939 -0.060585,0.0865 -0.022099,0.20091 -0.096299,0.29284 -0.1348495,0.16705 -0.4399757,0.0766 -0.511087,0.32506 -0.028764,0.10045 0.1223136,0.20105 0.1830861,0.26182 l 0.5760078,0.57601 c 0.058042,0.058 0.1467143,0.18899 0.2408766,0.17546 0.2530154,-0.0365 0.1846901,-0.38825 0.345762,-0.51552 0.091837,-0.0725 0.2040328,-0.0378 0.2930833,-0.0967 0.158979,-0.10526 0.2946021,-0.28723 0.4293878,-0.42202 l 0.4608064,-0.46076 c 0.1373834,-0.13738 0.2738141,-0.26398 0.3432065,-0.45034 0.1821339,-0.48915 -0.2329477,-1.04529 -0.762121,-0.9695 m -0.073309,0.38761 c 0.1084451,-0.0284 0.1819865,0.0946 0.1267951,0.18392 -0.063068,0.10209 -0.1783961,0.18775 -0.2629428,0.2723 l -0.5341155,0.53412 c -0.072641,0.0726 -0.1842407,0.23774 -0.2932407,0.24866 -0.1118927,0.0106 -0.1611456,-0.11535 -0.1003411,-0.1963 0.2092575,-0.27866 0.5135362,-0.51792 0.7601305,-0.76452 0.078339,-0.0783 0.1941892,-0.24957 0.3037146,-0.27818 m 0.3351305,0.34734 c 0.1069289,-0.0394 0.2007971,0.0745 0.145689,0.17172 -0.058125,0.10256 -0.1779246,0.18933 -0.2608899,0.27228 l -0.5341171,0.53413 c -0.075635,0.0756 -0.1842691,0.23542 -0.2932402,0.25861 -0.107105,0.0228 -0.1811283,-0.0983 -0.1202914,-0.18529 0.064994,-0.0929 0.1659004,-0.17129 0.2459669,-0.25136 l 0.5026976,-0.5027 c 0.085071,-0.0851 0.2004201,-0.25549 0.3141853,-0.29739 m -1.7803872,2.65379 c -0.1546739,0.10901 -0.2851131,0.27465 -0.418915,0.40844 -0.050356,0.0503 -0.1360847,0.10983 -0.1612514,0.17803 -0.042612,0.11559 -0.00631,0.3062 -0.00631,0.4294 v 0.99493 H 0.77253579 v -2.49256 H 1.7779304 c 0.1260727,0 0.3216012,0.0373 0.4398617,-0.007 0.06824,-0.0251 0.1276859,-0.11089 0.1780377,-0.16126 0.1338008,-0.13373 0.299483,-0.26424 0.4084418,-0.4189 H 1.097195 c -0.21453666,0 -0.53364382,-0.0594 -0.72262869,0.0598 -0.25570204,0.16116 -0.18851208,0.509 -0.18851208,0.76755 v 1.96889 c 0,0.23054 -0.0666381,0.57497 0.11618107,0.75222 0.18782592,0.18212 0.52466471,0.11711 0.7635415,0.11711 h 1.9479539 c 0.2605229,0 0.6155645,0.0693 0.778018,-0.1885 0.1178306,-0.18696 0.059812,-0.50004 0.059812,-0.71216 v -1.6966 M 3.359335,293.36852 c -0.1200196,0.0469 -0.2345723,0.21507 -0.3246588,0.30516 l -0.5445899,0.5446 c -0.087365,0.0873 -0.1722678,0.19507 -0.2722934,0.26775 -0.132325,0.0961 -0.3793374,-0.0676 -0.4734149,0.0989 -0.099483,0.176 -0.1823241,0.36369 -0.272747,0.54455 -0.044626,0.0892 -0.1215897,0.19477 -0.1397801,0.29324 -0.016963,0.0918 0.1552806,0.26406 0.2470962,0.24711 0.088097,-0.0163 0.1821542,-0.079 0.2618213,-0.1188 0.142536,-0.0713 0.286884,-0.13822 0.429388,-0.20947 0.062554,-0.0312 0.1834636,-0.0648 0.2180549,-0.12889 0.056169,-0.10409 -0.012621,-0.26362 0.01568,-0.37644 0.01188,-0.0474 0.057872,-0.0821 0.090926,-0.11512 l 0.7226281,-0.72247 c 0.097703,-0.0976 0.2612985,-0.21087 0.3227751,-0.33513 0.049213,-0.0994 -0.1814338,-0.33356 -0.2808832,-0.29469 z"
       id="path586"
       inkscape:connector-curvature="0" />
  </g>
  <style
     type="text/css"
     id="style221">
	.st0{fill:#333333;}
</style>
</svg>
